<?xml version="1.0" standalone="no"?>
<!DOCTYPE svg PUBLIC "-//W3C//DTD SVG 20010904//EN"
 "http://www.w3.org/TR/2001/REC-SVG-20010904/DTD/svg10.dtd">
<svg version="1.0" xmlns="http://www.w3.org/2000/svg"
 width="828.000000pt" height="198.000000pt" viewBox="0 0 828.000000 198.000000"
 preserveAspectRatio="xMidYMid meet">

<g transform="translate(0.000000,198.000000) scale(0.100000,-0.100000)"
fill="#000090" stroke="none">
<path d="M6138 1461 c-49 -10 -84 -35 -105 -74 -15 -27 -18 -59 -18 -222 0
-294 3 -297 340 -303 239 -4 354 6 394 36 14 10 35 36 46 58 18 34 20 59 20
209 0 152 -2 175 -21 216 -37 79 -55 84 -359 86 -143 1 -276 -2 -297 -6z m471
-177 c18 -23 21 -41 21 -119 0 -140 2 -139 -198 -143 -238 -5 -251 4 -240 176
8 112 8 112 223 112 l174 0 20 -26z"/>
<path d="M536 1438 c-9 -12 -16 -41 -16 -64 l0 -42 35 11 c25 7 45 7 70 0 l35
-11 0 48 c0 60 -18 80 -70 80 -29 0 -43 -6 -54 -22z"/>
<path d="M1270 1385 l0 -75 130 0 130 0 0 -220 0 -220 95 0 95 0 0 220 0 220
130 0 130 0 0 75 0 75 -355 0 -355 0 0 -75z"/>
<path d="M2164 1258 c-58 -112 -129 -245 -156 -295 l-50 -93 106 0 106 0 25
50 25 50 193 0 194 0 23 -50 23 -50 104 0 c57 0 103 3 103 6 0 4 -68 137 -151
295 l-151 289 -143 0 -143 0 -108 -202z m316 -38 c27 -55 50 -104 50 -110 0
-6 -45 -10 -120 -10 -66 0 -120 3 -120 6 0 20 114 214 126 214 8 0 36 -44 64
-100z"/>
<path d="M2890 1165 l0 -295 400 0 400 0 25 50 25 50 193 0 194 0 23 -50 23
-50 104 0 c57 0 103 3 103 6 0 4 -68 137 -151 296 l-151 289 -145 -3 -144 -3
-142 -268 -142 -268 -5 53 -5 53 -207 3 -208 2 0 215 0 215 -95 0 -95 0 0
-295z m1110 55 c27 -55 50 -104 50 -110 0 -6 -45 -10 -120 -10 -66 0 -120 3
-120 6 0 20 114 214 126 214 8 0 36 -44 64 -100z"/>
<path d="M4410 1165 l0 -295 95 0 94 0 -6 220 c-4 132 -2 220 3 220 5 0 79
-99 164 -220 l154 -220 158 0 158 0 0 295 0 295 -96 0 -96 0 8 -216 c5 -175 4
-216 -6 -212 -7 2 -79 98 -160 213 l-147 210 -161 3 -162 2 0 -295z"/>
<path d="M5270 1385 l0 -75 130 0 130 0 0 -220 0 -220 95 0 95 0 0 220 0 220
130 0 130 0 0 75 0 75 -355 0 -355 0 0 -75z"/>
<path d="M6880 1165 l0 -295 95 0 94 0 -6 220 c-4 132 -2 220 3 220 5 0 79
-99 164 -220 l154 -220 158 0 158 0 0 295 0 295 -96 0 -96 0 8 -216 c5 -175 4
-216 -6 -212 -7 2 -79 98 -160 213 l-147 210 -161 3 -162 2 0 -295z"/>
<path d="M519 1271 c-64 -64 -20 -171 70 -171 60 0 106 43 106 100 0 90 -112
135 -176 71z"/>
<path d="M347 978 c-54 -93 -97 -171 -95 -171 2 -1 21 -11 44 -23 l40 -20 85
145 c46 80 85 150 86 156 1 5 -12 26 -30 46 l-32 37 -98 -170z"/>
<path d="M648 1067 l-48 -21 0 -292 c0 -250 2 -293 15 -298 11 -4 15 -21 15
-66 0 -53 2 -60 20 -60 18 0 20 7 20 65 0 51 3 65 15 65 13 0 15 42 15 315 0
173 -1 315 -2 314 -2 -1 -24 -10 -50 -22z"/>
<path d="M223 749 c-44 -16 -56 -76 -22 -110 46 -46 133 5 112 67 -11 33 -57
56 -90 43z"/>
<path d="M200 461 l0 -115 50 55 c47 52 49 56 50 115 l0 60 -50 0 -50 0 0
-115z"/>
<path d="M1270 490 c0 -29 1 -30 50 -30 l50 0 0 -86 0 -85 38 3 37 3 3 83 3
82 49 0 c49 0 50 1 50 30 l0 30 -140 0 -140 0 0 -30z"/>
<path d="M1820 405 l0 -115 130 0 130 0 0 30 0 30 -90 0 c-73 0 -90 3 -90 15
0 12 16 15 85 15 84 0 85 0 85 25 0 25 -1 25 -85 25 -68 0 -85 3 -85 15 0 11
19 15 88 17 87 3 87 3 90 31 l3 27 -130 0 -131 0 0 -115z"/>
<path d="M2380 500 c-16 -16 -20 -33 -20 -95 0 -109 8 -115 149 -115 122 0
141 8 141 61 0 26 -3 29 -34 29 -21 0 -36 -6 -40 -15 -4 -11 -22 -15 -70 -15
-68 0 -76 6 -76 55 0 49 8 55 75 55 35 0 67 -4 70 -10 3 -5 22 -10 41 -10 39
0 45 20 18 58 -14 20 -23 22 -125 22 -96 0 -111 -2 -129 -20z"/>
<path d="M2940 405 l0 -115 40 0 40 0 0 40 0 40 75 0 75 0 0 -40 0 -40 40 0
40 0 0 115 0 115 -40 0 -40 0 0 -40 0 -40 -75 0 -75 0 0 40 0 40 -40 0 -40 0
0 -115z"/>
<path d="M3540 405 l0 -115 40 0 39 0 3 81 3 81 58 -81 58 -81 60 0 59 0 0
115 0 115 -35 0 -34 0 -3 -82 -3 -83 -58 83 -58 82 -65 0 -64 0 0 -115z"/>
<path d="M4176 498 c-11 -15 -16 -46 -16 -95 0 -107 8 -113 158 -113 149 0
152 2 152 117 0 111 -3 113 -158 113 -114 0 -122 -1 -136 -22z m219 -93 l0
-50 -68 -3 c-78 -3 -97 6 -97 48 0 57 6 61 89 58 l76 -3 0 -50z"/>
<path d="M4760 405 l0 -115 120 0 120 0 0 30 0 30 -80 0 -80 0 0 85 0 85 -40
0 -40 0 0 -115z"/>
<path d="M5296 498 c-11 -15 -16 -46 -16 -95 0 -107 8 -113 158 -113 149 0
152 2 152 117 0 111 -3 113 -158 113 -114 0 -122 -1 -136 -22z m219 -93 l0
-50 -68 -3 c-78 -3 -97 6 -97 48 0 57 6 61 89 58 l76 -3 0 -50z"/>
<path d="M5900 500 c-16 -16 -20 -33 -20 -95 0 -108 9 -115 148 -115 135 0
152 9 152 81 l0 49 -80 0 c-79 0 -80 0 -80 -25 0 -23 4 -25 45 -25 25 0 45 -4
45 -9 0 -14 -69 -21 -115 -13 -34 6 -40 11 -43 36 -2 16 -1 39 2 52 6 23 11
24 81 24 43 0 75 -4 75 -10 0 -5 16 -10 35 -10 30 0 35 3 35 24 0 44 -33 56
-152 56 -95 0 -110 -2 -128 -20z"/>
<path d="M6470 405 l0 -115 40 0 40 0 0 115 0 115 -40 0 -40 0 0 -115z"/>
<path d="M6840 405 l0 -115 130 0 130 0 0 30 0 30 -90 0 c-73 0 -90 3 -90 15
0 12 16 15 85 15 84 0 85 0 85 25 0 25 -1 25 -85 25 -68 0 -85 3 -85 15 0 11
19 15 88 17 87 3 87 3 90 31 l3 27 -130 0 -131 0 0 -115z"/>
<path d="M7396 504 c-9 -9 -16 -32 -16 -54 0 -55 25 -70 115 -70 76 0 111 -12
85 -30 -25 -16 -120 -12 -126 5 -4 9 -19 15 -40 15 -31 0 -34 -3 -34 -30 0
-19 7 -33 19 -40 30 -16 226 -13 240 3 20 25 24 75 8 101 -14 21 -26 25 -107
31 -61 5 -90 11 -87 19 5 14 107 20 120 7 6 -6 26 -11 44 -11 25 0 33 4 33 18
0 41 -30 52 -138 52 -78 0 -104 -4 -116 -16z"/>
<path d="M895 460 c-10 -17 2 -26 66 -49 110 -41 122 -79 36 -119 -76 -36
-191 -54 -342 -54 -191 -1 -322 25 -392 78 -31 23 -63 32 -63 16 0 -40 87 -91
205 -118 113 -26 377 -26 490 0 231 53 275 166 92 234 -64 24 -83 27 -92 12z"/>
</g>
</svg>
